<svg xmlns="http://www.w3.org/2000/svg" viewBox="0 0 151.72 129.28">
    <g>
        <path d="M141.62 129.28c-1.84-.63-3.67-1.23-5.03-2.76-2.12-2.38-3.13-5.08-2.28-8.21.89-3.27 2.96-5.65 6.34-6.35 3.3-.67 6.52-.2 8.84 2.59 2.45 2.94 2.92 6.31 1.27 9.78-1.23 2.59-3.45 4.1-6.26 4.71-.19.04-.4 0-.48.24h-2.4Zm8.86-8.92c.45-4.06-3.77-7.52-7.33-7.66-4.73-.19-8 4.01-8.03 7.58-.03 4.04 3.47 7.92 7.74 7.86 3.94-.06 7.9-3.35 7.62-7.77ZM0 119.71c.01-.4.04-.8.04-1.19V9.77c0-.4-.03-.8-.04-1.19C.4 3.65 4.32.02 9.43.02 45.87 0 82.32 0 118.76.02c5.42 0 9.5 4.32 9.5 9.58-.03 36.35-.04 72.7.02 109.05 0 5.22-4.41 9.66-9.66 9.66-36.68-.04-73.36 0-110.04-.06-3.81 0-8.2-3.38-8.57-8.53Zm68.43-63.27c-.08-.03-.17-.06-.25-.08 0-2.34-.04-4.69.02-7.03.02-.91-.2-1.23-1.18-1.22-5.27.05-10.54.04-15.81 0-.9 0-1.23.18-1.23 1.17.03 19.59.03 39.18 0 58.77 0 1 .34 1.16 1.23 1.15 5.51-.04 11.02-.05 16.52.01 1.11.01 1.29-.34 1.28-1.35-.04-10.05-.02-20.11-.02-30.16 0-2.25.12-4.47.74-6.67.87-3.08 2.48-5.53 5.46-6.87 2.04-.92 4.24-.8 6.41-.74 3.36.08 6.16 2.05 7.37 5.32 1.07 2.9 1.28 5.92 1.31 8.93.1 10.13.05 20.27.02 30.4 0 .87.19 1.15 1.11 1.14 5.55-.05 11.1-.05 16.64 0 1.06.01 1.23-.35 1.21-1.3-.21-11.31.24-22.63-.17-33.95-.17-4.65-.38-9.26-1.71-13.75-1.45-4.89-4.19-8.85-8.87-11.14-5.27-2.58-10.95-2.97-16.62-2.09-4.67.73-8.61 3.09-11.56 6.89-.65.83-1.26 1.7-1.89 2.55ZM19 78.64c0 9.78.02 19.55-.02 29.33 0 1.01.28 1.25 1.26 1.24 5.55-.05 11.1-.04 16.64 0 .9 0 1.13-.24 1.13-1.14-.03-19.59-.03-39.18 0-58.78 0-.95-.27-1.2-1.21-1.19-5.51.04-11.02.05-16.52 0-1.09-.01-1.31.3-1.3 1.33.04 9.74.02 19.47.02 29.21Zm9.42-60.72c-6.08-.56-10.71 5.22-10.92 10.2-.28 6.61 5.15 11.56 10.66 11.61 6.21.06 10.86-4.95 11.23-10.09.52-7.22-5.57-12.28-10.97-11.71Z" fill="#97ADBC"/>
        <path d="M144.22 121.02c.77 1.43 1.86 2.57 2.44 4.05-.96.4-1.49-.02-1.93-.77-.5-.84-1.16-1.6-1.55-2.49-.39-.91-1.08-.73-1.69-.64-.72.11-.31.78-.35 1.18-.07.71-.02 1.43-.02 2.15 0 .59-.37.7-.87.71-.55 0-.53-.35-.53-.72v-8.13c0-.4.05-.71.57-.7 1.5.03 3.01-.09 4.5.23 1.24.27 1.73 1.14 1.83 2.27.1 1.14-.5 1.94-1.46 2.49-.27.15-.58.22-.95.36Zm-3.09-2.87q0 1.8 1.52 1.8c1.63 0 2.57-.61 2.55-1.62-.02-1.11-.69-1.43-2.57-1.51-1.19-.05-1.87.16-1.5 1.34Z" fill="#97ADBC"/>
    </g>
</svg>