<svg width="23" height="25" fill="none" xmlns="http://www.w3.org/2000/svg"><path d="m22.016 15.959-5.216 6.19a3.538 3.538 0 0 1-2.767 1.295H6.196l-1.347 1.42L0 19.968l3.478-3.578c1.444-1.471 3.575-1.979 5.485-1.294l.76.28h4.701c.833 0 1.494.71 1.47 1.572a1.558 1.558 0 0 1-1.543 1.497h-2.816c-.319 0-.564.28-.564.584 0 .33.27.584.564.584h2.84c1.445 0 2.645-1.193 2.694-2.64v-.025l2.62-3.044c.564-.66 1.52-.761 2.18-.229.637.584.71 1.624.147 2.284Zm-15.82-8.5v-.888c0-.38.27-.736.637-.786l1.004-.178a6.11 6.11 0 0 1 .514-1.32l-.588-.862a.831.831 0 0 1 .098-1.04l.612-.634a.762.762 0 0 1 1.005-.102l.832.61a5.667 5.667 0 0 1 1.274-.534l.171-1.04c.074-.406.392-.685.76-.685h.88c.368 0 .711.28.76.66l.171 1.04c.441.152.882.33 1.274.558l.833-.609a.761.761 0 0 1 1.004.102l.612.634c.27.279.294.71.098 1.04l-.588.863c.22.406.392.837.514 1.32l1.005.177a.805.805 0 0 1 .636.786v.888c0 .38-.27.736-.636.787l-1.029.177a6.11 6.11 0 0 1-.514 1.32l.587.862c.22.33.172.761-.098 1.04l-.612.635a.792.792 0 0 1-1.004.101l-.808-.634a5.229 5.229 0 0 1-1.273.533l-.172 1.04c-.073.38-.392.66-.759.66h-.857a.772.772 0 0 1-.76-.66l-.17-1.04a5.664 5.664 0 0 1-1.274-.533l-.857.609a.761.761 0 0 1-1.004-.101l-.613-.635c-.27-.279-.294-.71-.098-1.04l.588-.863a5.64 5.64 0 0 1-.514-1.319L6.833 8.22c-.368-.05-.637-.38-.637-.76Zm4.433-.456c0 1.319 1.028 2.41 2.326 2.41s2.327-1.066 2.327-2.41c0-1.32-1.029-2.41-2.327-2.41s-2.326 1.09-2.326 2.41Z" fill="#fff"/></svg>