<svg width="48" height="48" viewBox="0 0 48 48" fill="none" xmlns="http://www.w3.org/2000/svg">
<path d="M15.75 4H32.55C38.95 4 44.15 9.2 44.15 15.6V32.4C44.15 35.4765 42.9279 38.427 40.7524 40.6024C38.577 42.7779 35.6265 44 32.55 44H15.75C9.34999 44 4.14999 38.8 4.14999 32.4V15.6C4.14999 12.5235 5.37213 9.57298 7.54756 7.39756C9.72298 5.22214 12.6735 4 15.75 4ZM15.35 8C13.4404 8 11.6091 8.75857 10.2588 10.1088C8.90856 11.4591 8.14999 13.2904 8.14999 15.2V32.8C8.14999 36.78 11.37 40 15.35 40H32.95C34.8596 40 36.6909 39.2414 38.0412 37.8912C39.3914 36.5409 40.15 34.7096 40.15 32.8V15.2C40.15 11.22 36.93 8 32.95 8H15.35ZM34.65 11C35.313 11 35.9489 11.2634 36.4178 11.7322C36.8866 12.2011 37.15 12.837 37.15 13.5C37.15 14.163 36.8866 14.7989 36.4178 15.2678C35.9489 15.7366 35.313 16 34.65 16C33.987 16 33.3511 15.7366 32.8822 15.2678C32.4134 14.7989 32.15 14.163 32.15 13.5C32.15 12.837 32.4134 12.2011 32.8822 11.7322C33.3511 11.2634 33.987 11 34.65 11ZM24.15 14C26.8022 14 29.3457 15.0536 31.2211 16.9289C33.0964 18.8043 34.15 21.3478 34.15 24C34.15 26.6522 33.0964 29.1957 31.2211 31.0711C29.3457 32.9464 26.8022 34 24.15 34C21.4978 34 18.9543 32.9464 17.0789 31.0711C15.2036 29.1957 14.15 26.6522 14.15 24C14.15 21.3478 15.2036 18.8043 17.0789 16.9289C18.9543 15.0536 21.4978 14 24.15 14ZM24.15 18C22.5587 18 21.0326 18.6321 19.9074 19.7574C18.7821 20.8826 18.15 22.4087 18.15 24C18.15 25.5913 18.7821 27.1174 19.9074 28.2426C21.0326 29.3679 22.5587 30 24.15 30C25.7413 30 27.2674 29.3679 28.3926 28.2426C29.5179 27.1174 30.15 25.5913 30.15 24C30.15 22.4087 29.5179 20.8826 28.3926 19.7574C27.2674 18.6321 25.7413 18 24.15 18Z" fill="#97ADBC"/>
</svg>
