<svg width="48" height="48" viewBox="0 0 49 48" fill="none" xmlns="http://www.w3.org/2000/svg">
<path d="M45.07 12C43.53 12.7 41.87 13.16 40.15 13.38C41.91 12.32 43.27 10.64 43.91 8.62C42.25 9.62 40.41 10.32 38.47 10.72C36.89 9 34.67 8 32.15 8C27.45 8 23.61 11.84 23.61 16.58C23.61 17.26 23.69 17.92 23.83 18.54C16.71 18.18 10.37 14.76 6.15 9.58C5.41 10.84 4.99 12.32 4.99 13.88C4.99 16.86 6.49 19.5 8.81 21C7.39 21 6.07 20.6 4.91 20C4.91 20 4.91 20 4.91 20.06C4.91 24.22 7.87 27.7 11.79 28.48C11.07 28.68 10.31 28.78 9.53 28.78C8.99 28.78 8.45 28.72 7.93 28.62C9.01 32 12.15 34.52 15.93 34.58C13.01 36.9 9.31 38.26 5.27 38.26C4.59 38.26 3.91 38.22 3.23 38.14C7.03 40.58 11.55 42 16.39 42C32.15 42 40.81 28.92 40.81 17.58C40.81 17.2 40.81 16.84 40.79 16.46C42.47 15.26 43.91 13.74 45.07 12Z" fill="#97ADBC"/>
</svg>
