<svg width="32" height="24" viewBox="0 0 32 24" fill="none" xmlns="http://www.w3.org/2000/svg">
<g clip-path="url(#clip0_429_33)">
<path d="M26.5859 2.00996C24.5239 1.05745 22.3471 0.381713 20.111 0C19.805 0.551901 19.5282 1.11973 19.2816 1.70112C16.8998 1.33898 14.4776 1.33898 12.0958 1.70112C11.8491 1.11979 11.5722 0.551968 11.2663 0C9.02885 0.384937 6.85058 1.06228 4.78651 2.01494C0.688782 8.132 -0.422047 14.0971 0.133367 19.9776C2.5331 21.7665 5.21908 23.127 8.07456 24C8.71753 23.1275 9.28647 22.2018 9.77536 21.2329C8.84679 20.883 7.95055 20.4512 7.09703 19.9427C7.32166 19.7783 7.54136 19.609 7.75365 19.4446C10.2372 20.623 12.9479 21.234 15.6924 21.234C18.4369 21.234 21.1475 20.623 23.6311 19.4446C23.8459 19.6214 24.0656 19.7908 24.2877 19.9427C23.4325 20.4521 22.5347 20.8846 21.6045 21.2354C22.0927 22.2039 22.6617 23.1287 23.3053 24C26.1632 23.1305 28.8512 21.7707 31.2514 19.9801C31.9031 13.1606 30.1381 7.25031 26.5859 2.00996ZM10.4789 16.3611C8.93113 16.3611 7.65244 14.944 7.65244 13.2005C7.65244 11.457 8.8867 10.0274 10.4739 10.0274C12.0612 10.0274 13.33 11.457 13.3029 13.2005C13.2757 14.944 12.0563 16.3611 10.4789 16.3611ZM20.9059 16.3611C19.3556 16.3611 18.0819 14.944 18.0819 13.2005C18.0819 11.457 19.3161 10.0274 20.9059 10.0274C22.4956 10.0274 23.7545 11.457 23.7274 13.2005C23.7002 14.944 22.4832 16.3611 20.9059 16.3611Z" fill="#97ADBC"/>
</g>
<defs>
<clipPath id="clip0_429_33">
<rect width="31.3846" height="24" fill="white"/>
</clipPath>
</defs>
</svg>
