<svg width="50" height="48" viewBox="0 0 50 48" fill="none" xmlns="http://www.w3.org/2000/svg">
<path fill-rule="evenodd" clip-rule="evenodd" d="M24.573 0C11.0027 0 0 11.0188 0 24.6089C0 35.481 7.03945 44.7068 16.8052 47.9587C18.034 48.1869 18.4857 47.4249 18.4857 46.7729C18.4857 46.1861 18.4613 44.2464 18.4531 42.1926C11.6171 43.6799 10.1767 39.2912 10.1767 39.2912C9.0577 36.4468 7.45042 35.6889 7.45042 35.6889C5.22059 34.1607 7.61725 34.1933 7.61725 34.1933C10.0831 34.3686 11.3852 36.728 11.3852 36.728C13.5784 40.4892 17.1348 39.4012 18.5345 38.7736C18.7542 37.1844 19.3931 36.0964 20.0929 35.481C14.6364 34.8576 8.899 32.7467 8.899 23.3212C8.899 20.6358 9.8593 18.4394 11.4299 16.7157C11.1736 16.0963 10.3354 13.5942 11.666 10.2038C11.666 10.2038 13.729 9.54365 18.4246 12.7262C20.3859 12.1802 22.4855 11.9072 24.577 11.899C26.6645 11.9072 28.7682 12.1802 30.7335 12.7262C35.4251 9.54365 37.484 10.2038 37.484 10.2038C38.8228 13.5942 37.9805 16.0963 37.7241 16.7157C39.2988 18.4394 40.251 20.6358 40.251 23.3212C40.251 32.7712 34.5014 34.8535 29.0326 35.4647C29.9156 36.2268 30.7009 37.7264 30.7009 40.0206C30.7009 43.3132 30.6725 45.9619 30.6725 46.7729C30.6725 47.4289 31.116 48.195 32.3611 47.9546C42.1187 44.6987 49.15 35.477 49.15 24.6089C49.1459 11.0188 38.1432 0 24.573 0Z" fill="#97ADBC"/>
<path d="M9.3059 35.3302C9.253 35.4524 9.05769 35.4891 8.88272 35.4035C8.70368 35.322 8.60602 35.155 8.66299 35.0327C8.71589 34.9064 8.90713 34.8738 9.08617 34.9553C9.26521 35.0368 9.36694 35.2039 9.3059 35.3261V35.3302Z" fill="#97ADBC"/>
<path d="M10.3028 36.4427C10.1848 36.5528 9.95696 36.4998 9.80234 36.3286C9.63957 36.1575 9.61109 35.9293 9.72909 35.8193C9.85117 35.7092 10.0709 35.7622 10.2337 35.9334C10.3964 36.1086 10.4249 36.3327 10.3028 36.4427Z" fill="#97ADBC"/>
<path d="M11.2712 37.8609C11.1207 37.9669 10.8725 37.8691 10.7219 37.649C10.5714 37.429 10.5714 37.1681 10.7219 37.0622C10.8725 36.9562 11.1166 37.05 11.2712 37.27C11.4218 37.4942 11.4218 37.755 11.2712 37.8609Z" fill="#97ADBC"/>
<path d="M12.5978 39.2299C12.4635 39.3806 12.1746 39.3399 11.9671 39.1361C11.7514 38.9365 11.6944 38.6553 11.8287 38.5086C11.9671 38.3578 12.2519 38.4026 12.4635 38.6023C12.6751 38.802 12.7402 39.0832 12.5978 39.2299Z" fill="#97ADBC"/>
<path d="M14.4288 40.0245C14.3678 40.2161 14.0911 40.3057 13.8144 40.2242C13.5377 40.1386 13.3546 39.9145 13.4116 39.7189C13.4685 39.5233 13.7452 39.4337 14.026 39.5193C14.3027 39.6048 14.4858 39.8289 14.4288 40.0245Z" fill="#97ADBC"/>
<path d="M16.439 40.1712C16.4471 40.3749 16.2111 40.542 15.9181 40.5461C15.6251 40.5542 15.3851 40.3872 15.3851 40.1875C15.3851 39.9837 15.617 39.8166 15.91 39.8126C16.2029 39.8085 16.443 39.9715 16.443 40.1712H16.439Z" fill="#97ADBC"/>
<path d="M18.3107 39.8532C18.3473 40.0529 18.1439 40.2526 17.8509 40.3096C17.5661 40.3626 17.3016 40.2403 17.265 40.0447C17.2283 39.841 17.4359 39.6372 17.7207 39.5843C18.0096 39.5354 18.27 39.6535 18.3066 39.8532H18.3107Z" fill="#97ADBC"/>
</svg>
